STARTFONT 2.1
FONT -sun-chevara-medium-r-normal--24-240-75-75-p-211-adobe-fontspecific
SIZE 24 75 75
FONTBOUNDINGBOX 51 33 -7 -7

STARTPROPERTIES 28
FOUNDRY "sun"
FAMILY_NAME "chevara"
WEIGHT_NAME "medium"
SLANT "r"
SETWIDTH_NAME "normal"
ADD_STYLE_NAME ""
PIXEL_SIZE 25
POINT_SIZE 240
RESOLUTION_X 75
RESOLUTION_Y 75
SPACING "p"
AVERAGE_WIDTH 211
CHARSET_REGISTRY "adobe"
CHARSET_ENCODING "fontspecific"
COPYRIGHT "© 1999 Sun Microsystems, Inc."
RAW_PIXELSIZE 1000
RAW_POINTSIZE 964
RAW_ASCENT 1047
RAW_DESCENT 285
RAW_AVERAGE_WIDTH 8445
FACE_NAME "ChevaraNormal"
_XMBDFED_INFO "Edited with xmbdfed 2.4."
WEIGHT 10
X_HEIGHT -2
QUAD_WIDTH 21
DEFAULT_CHAR 4
FONT_DESCENT 7
FONT_ASCENT 26
ENDPROPERTIES

CHARS 195

STARTCHAR char32
ENCODING 32
SWIDTH 10 0
DWIDTH 13 0
BBX 0 0 0 0
BITMAP
ENDCHAR

STARTCHAR char33
ENCODING 33
SWIDTH 35 0
DWIDTH 10 0
BBX 6 18 4 0
BITMAP
78
FC
8C
FC
FC
8C
BC
58
58
30
30
10
00
38
7C
8C
FC
78
ENDCHAR

STARTCHAR char34
ENCODING 34
SWIDTH 13 0
DWIDTH 14 0
BBX 11 7 3 11
BITMAP
71C0
5A40
7BE0
7960
18C0
30C0
6180
ENDCHAR

STARTCHAR char35
ENCODING 35
SWIDTH 17 0
DWIDTH 15 0
BBX 12 19 1 0
BITMAP
0C60
0C40
0840
08C0
18C0
FFF0
FFF0
18C0
1880
1880
1180
1180
FFE0
FFE0
3180
3180
3100
2100
2300
ENDCHAR

STARTCHAR char36
ENCODING 36
SWIDTH 24 0
DWIDTH 27 0
BBX 21 23 7 -3
BITMAP
008800
008800
0FF820
308E60
6089E0
6088A0
B08860
FC8820
FFFE20
83FF80
FFFFE0
67FFF0
188838
47FFF8
408F38
6088C8
708838
7C8850
63C860
40BFC0
008800
008800
008800
ENDCHAR

STARTCHAR char37
ENCODING 37
SWIDTH 27 0
DWIDTH 38 0
BBX 33 18 7 0
BITMAP
0F80020000
38E0060000
78F0040000
78F0080000
9898100000
F8F8300000
F8F820F000
9898438C00
78F8C58F00
58B0878F00
38E10B8D80
0F820D8B80
00060F0F80
0004098980
00080F8F00
0018058B00
0010038E00
002000F800
ENDCHAR

STARTCHAR char38
ENCODING 38
SWIDTH 24 0
DWIDTH 27 0
BBX 23 18 6 0
BITMAP
01F800
02C600
07C100
07C100
07E100
046200
05F400
0238FE
03FC7C
1D7C50
2C8E60
7C7F60
7C3F40
8C2380
7E1FC0
5F08C0
23BFE0
1FC000
ENDCHAR

STARTCHAR char39
ENCODING 39
SWIDTH 25 0
DWIDTH 7 0
BBX 5 7 2 11
BITMAP
30
60
E0
90
F8
58
30
ENDCHAR

STARTCHAR char40
ENCODING 40
SWIDTH 6 0
DWIDTH 12 0
BBX 9 19 4 -1
BITMAP
0380
1E00
1C00
3C00
4C00
7800
F800
9800
F800
F800
9800
F800
B800
5800
7C00
2C00
1E00
0780
0080
ENDCHAR

STARTCHAR char41
ENCODING 41
SWIDTH 6 0
DWIDTH 12 0
BBX 9 19 2 -1
BITMAP
E000
3800
1C00
1E00
1300
1F00
1F80
1180
1F80
1F80
1180
1F80
1F00
1300
1E00
2C00
3800
7000
8000
ENDCHAR

STARTCHAR char42
ENCODING 42
SWIDTH 32 0
DWIDTH 9 0
BBX 8 8 2 10
BITMAP
10
10
10
FF
10
28
24
24
ENDCHAR

STARTCHAR char43
ENCODING 43
SWIDTH 28 0
DWIDTH 18 0
BBX 15 14 4 0
BITMAP
0100
0100
0100
0100
0100
0100
FFFE
0100
0100
0100
0100
0100
0100
0100
ENDCHAR

STARTCHAR char44
ENCODING 44
SWIDTH 28 0
DWIDTH 8 0
BBX 6 8 2 -3
BITMAP
38
5C
FC
BC
4C
38
18
60
ENDCHAR

STARTCHAR char45
ENCODING 45
SWIDTH 10 0
DWIDTH 13 0
BBX 10 1 3 8
BITMAP
FFC0
ENDCHAR

STARTCHAR char46
ENCODING 46
SWIDTH 28 0
DWIDTH 8 0
BBX 6 5 2 0
BITMAP
38
78
CC
BC
78
ENDCHAR

STARTCHAR char47
ENCODING 47
SWIDTH 17 0
DWIDTH 15 0
BBX 14 18 3 0
BITMAP
0004
0008
0010
0010
0020
0040
0080
0100
0100
0200
0400
0800
0800
1000
2000
4000
4000
8000
ENDCHAR

STARTCHAR char48
ENCODING 48
SWIDTH 16 0
DWIDTH 25 0
BBX 20 18 6 0
BITMAP
03F800
0D0F00
1E0F80
3E07C0
4204E0
7E07E0
FE07F0
860470
FE07F0
FE07B0
860470
FE07F0
BE07E0
460460
3E07C0
330580
0F0F00
03FC00
ENDCHAR

STARTCHAR char49
ENCODING 49
SWIDTH 24 0
DWIDTH 17 0
BBX 14 19 4 0
BITMAP
0040
00C0
07C0
FFC0
1FC0
08C0
0FC0
0FC0
08C0
0FC0
0FC0
08C0
0FC0
0FC0
08C0
0FC0
0FC0
18E0
FFFC
ENDCHAR

STARTCHAR char50
ENCODING 50
SWIDTH 9 0
DWIDTH 23 0
BBX 18 18 5 0
BITMAP
07FC00
385F00
402380
403FC0
BC3FC0
C621C0
FE3DC0
462380
3C3F00
184E00
01F040
030040
0C0040
3FFFC0
3FFFC0
7FFFC0
8000C0
FFFFC0
ENDCHAR

STARTCHAR char51
ENCODING 51
SWIDTH 13 0
DWIDTH 24 0
BBX 19 18 5 0
BITMAP
0FFC00
301300
580F80
FC0FC0
BC0EC0
4C09C0
381F80
001300
03FC00
001780
0008C0
780FC0
FC0FE0
FC0860
8C0FC0
7808C0
301F80
1FFE00
ENDCHAR

STARTCHAR char52
ENCODING 52
SWIDTH 13 0
DWIDTH 24 0
BBX 19 19 5 0
BITMAP
000200
000600
000E00
001600
003E00
004600
00FE00
017E00
064600
0C7E00
187E00
204600
407E00
804600
FFFFE0
007E00
004600
007E00
07FFE0
ENDCHAR

STARTCHAR char53
ENCODING 53
SWIDTH 9 0
DWIDTH 23 0
BBX 18 18 5 0
BITMAP
7FFFC0
7FFD80
400300
7FFE00
407C00
7FF000
400000
47FC00
781F00
401F80
0011C0
781FC0
FC1FC0
FC1EC0
8C11C0
581180
301F00
1FFC00
ENDCHAR

STARTCHAR char54
ENCODING 54
SWIDTH 16 0
DWIDTH 25 0
BBX 19 18 6 0
BITMAP
01FF00
078580
1F1FC0
3E1FC0
7E1BC0
860D80
FE0700
87FF00
FE0F80
FE07C0
860460
FE07E0
7E07E0
460460
3E07E0
3206C0
0F0D80
03FF00
ENDCHAR

STARTCHAR char55
ENCODING 55
SWIDTH 6 0
DWIDTH 22 0
BBX 18 18 5 0
BITMAP
7FFFC0
4000C0
7FFF80
7FFF80
800300
FFFE00
800200
800400
801C00
003800
005800
00F000
01B000
027000
07E000
0F6000
08E000
1FE000
ENDCHAR

STARTCHAR char56
ENCODING 56
SWIDTH 16 0
DWIDTH 25 0
BBX 19 18 6 0
BITMAP
07FC00
180300
700080
7800C0
9E00C0
FF80C0
BFF180
40FE00
3FFF00
18FFC0
6701C0
40FFE0
801BE0
800460
8003E0
400140
300380
0FFE00
ENDCHAR

STARTCHAR char57
ENCODING 57
SWIDTH 13 0
DWIDTH 24 0
BBX 20 18 5 0
BITMAP
03F800
1F1600
3E0F80
7E07C0
FE07C0
860460
BE07E0
C60470
7E07F0
3607F0
0F1C70
03E7E0
1E0760
2304E0
3F07C0
270D80
1A0B00
07FC00
ENDCHAR

STARTCHAR char58
ENCODING 58
SWIDTH 35 0
DWIDTH 10 0
BBX 6 13 4 0
BITMAP
30
58
FC
FC
58
30
00
00
38
7C
8C
FC
38
ENDCHAR

STARTCHAR char59
ENCODING 59
SWIDTH 35 0
DWIDTH 10 0
BBX 6 16 4 -3
BITMAP
30
DC
BC
FC
58
30
00
00
38
5C
BC
FC
6C
18
18
60
ENDCHAR

STARTCHAR char60
ENCODING 60
SWIDTH 21 0
DWIDTH 16 0
BBX 13 13 1 0
BITMAP
0008
0038
00E0
0780
1E00
7800
E000
F000
3C00
0700
01E0
0078
0018
ENDCHAR

STARTCHAR char61
ENCODING 61
SWIDTH 28 0
DWIDTH 18 0
BBX 17 5 3 5
BITMAP
FFFF80
000000
000000
000000
FFFF80
ENDCHAR

STARTCHAR char62
ENCODING 62
SWIDTH 21 0
DWIDTH 16 0
BBX 13 13 1 0
BITMAP
8000
E000
3800
0F00
03C0
00F0
0038
0078
01E0
0700
3C00
F000
C000
ENDCHAR

STARTCHAR char63
ENCODING 63
SWIDTH 21 0
DWIDTH 16 0
BBX 14 18 3 0
BITMAP
0FC0
3060
4038
F83C
BC3C
FCFC
4F0C
3BFC
03F8
03F0
03C0
0300
0000
0700
0F80
1980
0F80
0F00
ENDCHAR

STARTCHAR char64
ENCODING 64
SWIDTH 24 0
DWIDTH 27 0
BBX 18 19 4 0
BITMAP
01F000
07F800
1C0E00
300700
600180
63ED80
C7FCC0
CE1CC0
CC18C0
DC18C0
D818C0
D83180
D83100
DC7300
4FFE00
679980
300300
1FFC00
07F000
ENDCHAR

STARTCHAR char65
ENCODING 65
SWIDTH 27 0
DWIDTH 28 0
BBX 25 18 5 0
BITMAP
00080000
001C0000
001C0000
003E0000
007E0000
00430000
00FF8000
01AF8000
0111C000
0217C000
0208E000
040FE000
0FFFF000
08043800
1803F800
3C03FC00
7E020E00
FF9FFF80
ENDCHAR

STARTCHAR char66
ENCODING 66
SWIDTH 27 0
DWIDTH 28 0
BBX 22 18 6 0
BITMAP
FFFFC0
1FC2F0
10C118
1FC1F8
10C118
1FC1F8
1FC1F8
10C118
1FC3F0
1FFDE0
10C218
1FC1F8
1FC1FC
10C10C
1FC1FC
10C11C
1FC3F8
FFFFE0
ENDCHAR

STARTCHAR char67
ENCODING 67
SWIDTH 16 0
DWIDTH 25 0
BBX 20 18 6 0
BITMAP
03FC10
0FC3F0
1B80F0
3F0070
430030
7E0030
FE0010
860010
FE0000
FE0000
860000
FE0000
7E0010
430010
3F0020
138040
0FC180
03FE00
ENDCHAR

STARTCHAR char68
ENCODING 68
SWIDTH 34 0
DWIDTH 30 0
BBX 24 18 6 0
BITMAP
FFFF80
30C170
1FC0F8
0FC07C
0FC07E
08C046
0FC07F
08C043
0FC07F
0FC07F
08C043
0FC07F
0FC07E
08C046
0FC07E
0FC0CC
18C138
FFFFC0
ENDCHAR

STARTCHAR char69
ENCODING 69
SWIDTH 24 0
DWIDTH 27 0
BBX 23 18 5 0
BITMAP
FFFFFC
17C0CC
08C03C
0FC01C
0FC00C
08C10C
0FC104
0FC300
08FF00
0FC500
08C300
0FC102
0FC006
08C00E
0FC01E
08C03E
0FC0CE
FFFFFE
ENDCHAR

STARTCHAR char70
ENCODING 70
SWIDTH 16 0
DWIDTH 25 0
BBX 22 18 5 0
BITMAP
FFFFFC
17C08C
08C07C
0FC01C
0FC00C
08C10C
0FC304
0FC500
08FF00
0FC500
08C300
0FC100
0FC000
08C000
0FC000
0FC000
08E000
FFFC00
ENDCHAR

STARTCHAR char71
ENCODING 71
SWIDTH 34 0
DWIDTH 30 0
BBX 26 18 6 0
BITMAP
01FE0800
06C1F800
1B807800
3F003800
43001800
7F001800
FE000800
86000000
FE000000
FE0FFFC0
86017E00
FE008C00
7E00FC00
4300FC00
3F008C00
1380CC00
0FC3FC00
03FC0200
ENDCHAR

STARTCHAR char72
ENCODING 72
SWIDTH 9 0
DWIDTH 33 0
BBX 29 18 6 0
BITMAP
FFFDFFF8
1FE03F80
08602180
0FE03F80
0FE02180
08603F80
0FE03F80
0FE02180
087FFF80
0FE03F80
08602180
0FE03F80
0FE03F80
08602180
0FE03F80
08602180
0FE03F80
FFFDFFF8
ENDCHAR

STARTCHAR char73
ENCODING 73
SWIDTH 24 0
DWIDTH 17 0
BBX 14 18 4 0
BITMAP
FFFC
10E0
0FC0
0FC0
08C0
0FC0
0FC0
08C0
0FC0
0FC0
08C0
0FC0
0FC0
08C0
0FC0
08C0
1FC0
FFFC
ENDCHAR

STARTCHAR char74
ENCODING 74
SWIDTH 2 0
DWIDTH 21 0
BBX 18 18 4 0
BITMAP
07FFC0
010E00
00FC00
00FC00
008C00
00FC00
00FC00
008C00
00FC00
00FC00
008C00
30FC00
FCFC00
8C8C00
FCFC00
988800
70F000
3FE000
ENDCHAR

STARTCHAR char75
ENCODING 75
SWIDTH 9 0
DWIDTH 33 0
BBX 30 18 6 0
BITMAP
FFFEFFF8
17E03B80
08601600
0FE01800
0FE03000
08E04000
0FE08000
08E1C000
0FE7E000
0FEBF000
08F43000
0FE3F800
0FE2FC00
08E10E00
0FE0FF00
0FE04380
08607FC0
FFFDFFFC
ENDCHAR

STARTCHAR char76
ENCODING 76
SWIDTH 20 0
DWIDTH 26 0
BBX 23 18 5 0
BITMAP
FFFC00
10E000
0FC000
0FC000
08C000
0FC000
0FC000
08C000
0FC000
0FC000
08C000
0FC002
0FC006
08C00E
0FC016
08C03E
0FC0C6
FFFFFE
ENDCHAR

STARTCHAR char77
ENCODING 77
SWIDTH 23 0
DWIDTH 37 0
BBX 32 18 7 0
BITMAP
FFC003FF
10E00638
0FE007F0
0FF00FF0
0DF80BF0
0A381230
0AFC13F0
090C2230
08FE23F0
08BF23F0
08434230
087F83F0
082F83F0
08110230
081F03F0
180903F0
3C060238
FF843FFF
ENDCHAR

STARTCHAR char78
ENCODING 78
SWIDTH 31 0
DWIDTH 29 0
BBX 26 18 5 0
BITMAP
FFE07FC0
3FF00F00
18380E00
0FFC0400
0A0E0400
09FF0400
08FF8400
0841C400
083FE400
081BF400
08043C00
0803FC00
08017C00
08008400
08007C00
1C002C00
3E001400
FF800C00
ENDCHAR

STARTCHAR char79
ENCODING 79
SWIDTH 34 0
DWIDTH 30 0
BBX 23 18 7 0
BITMAP
00FF00
07C2E0
1F01F0
3F01F8
43010C
7E00FC
FE00FE
860086
FE00FE
FE00FE
860086
FE00FE
BE00F4
43008C
3F00F8
130118
0F81E0
03FF80
ENDCHAR

STARTCHAR char80
ENCODING 80
SWIDTH 27 0
DWIDTH 28 0
BBX 24 18 6 0
BITMAP
FFFFE0
10E138
1FC0FC
1FC07E
10C046
1FC07E
1FC07E
10C046
1FC0FC
10C138
1FFFE0
1FC000
1FC000
10C000
1FC000
10C000
1FC000
FFFC00
ENDCHAR

STARTCHAR char81
ENCODING 81
SWIDTH 34 0
DWIDTH 30 0
BBX 24 20 7 -2
BITMAP
01FF00
06C2E0
1F81F0
3F01F8
43010C
7E00FC
FE00FE
860086
FE00FE
FE00FE
860086
FE06FE
7E1F7E
43388C
3F27FD
130219
0F81FA
03FFEC
00004C
000038
ENDCHAR

STARTCHAR char82
ENCODING 82
SWIDTH 27 0
DWIDTH 28 0
BBX 25 18 5 0
BITMAP
FFFFE000
17E17800
08608C00
0FE0FE00
0FE0FE00
08608600
0FE0EE00
08609C00
0FE3F800
0FFF7000
086BE000
0FE7E000
0FE5F000
08623000
0FE3F800
0861F800
0FE11C00
7FFCFF80
ENDCHAR

STARTCHAR char83
ENCODING 83
SWIDTH 24 0
DWIDTH 27 0
BBX 21 18 7 0
BITMAP
0FF020
300E60
6001E0
6000A0
B00060
FC0020
FFF020
83FF80
7FFFE0
63FFF0
1C0038
43FFF8
400F38
6000C8
700038
780030
678060
407FC0
ENDCHAR

STARTCHAR char84
ENCODING 84
SWIDTH 20 0
DWIDTH 26 0
BBX 23 18 5 0
BITMAP
FFFFFE
9C8646
F8FE2E
F0FE16
E0860E
C0FE06
C0FE06
808602
00FE00
00FE00
008600
00FE00
00FE00
008600
00FE00
008600
00FE00
0FFFE0
ENDCHAR

STARTCHAR char85
ENCODING 85
SWIDTH 27 0
DWIDTH 28 0
BBX 25 18 5 0
BITMAP
FFFCFF80
10E03600
0FC00C00
0FC00800
08C00800
0FC00800
0FC00800
08C00800
0FC00800
0FC00800
08C00800
0FC00800
0FC00800
08C00800
0BC00800
04E01000
03E0E000
00FF0000
ENDCHAR

STARTCHAR char86
ENCODING 86
SWIDTH 27 0
DWIDTH 28 0
BBX 25 19 5 -1
BITMAP
FFFCFF80
2FE02300
17E01E00
0FE00C00
0BF00800
04300800
05F81000
02181000
01FC2000
017C2000
00864000
00FF8000
005F8000
00230000
002F0000
00120000
001C0000
000C0000
00080000
ENDCHAR

STARTCHAR char87
ENCODING 87
SWIDTH 1 0
DWIDTH 41 0
BBX 37 19 7 -1
BITMAP
FFFBFFCFF8
30E0830460
0FE07F03C0
0BE05F8280
0470218180
07F05FC100
03F857C100
021848E200
01FC8FE200
017C87F400
00BF05F400
0047021800
005E02F800
002E017000
0034019000
001C00E000
001400A000
0008004000
0000004000
ENDCHAR

STARTCHAR char88
ENCODING 88
SWIDTH 31 0
DWIDTH 29 0
BBX 26 18 5 0
BITMAP
FFFCFFC0
37F02600
08703800
0BF83000
04184000
03FC8000
017F0000
00870000
007F8000
002FC000
0010C000
002FE000
004BF000
00843800
0303FC00
07010E00
1F81FF00
FFF7FFC0
ENDCHAR

STARTCHAR char89
ENCODING 89
SWIDTH 27 0
DWIDTH 28 0
BBX 25 18 5 0
BITMAP
FFFCFF80
3FE03F00
10E01C00
0FE01800
07F01000
04383000
02FC2000
010C4000
01FE8000
00BF0000
00C30000
007F0000
007F0000
00430000
007F0000
00430000
007F0000
03FFF000
ENDCHAR

STARTCHAR char90
ENCODING 90
SWIDTH 13 0
DWIDTH 24 0
BBX 19 18 5 0
BITMAP
FFFFE0
8E10E0
F81FC0
A03F80
E04380
C0FF00
80F600
010E00
03FC00
07D800
043000
0FF020
1FE060
20C0E0
3F8160
4383E0
FF0C60
FFFFE0
ENDCHAR

STARTCHAR char91
ENCODING 91
SWIDTH 13 0
DWIDTH 14 0
BBX 8 18 6 0
BITMAP
FF
98
F8
F8
98
F8
F8
98
F8
F8
98
F8
F8
98
F8
98
F8
FF
ENDCHAR

STARTCHAR char92
ENCODING 92
SWIDTH 25 0
DWIDTH 7 0
BBX 7 18 0 0
BITMAP
C0
C0
40
60
60
20
30
30
10
18
18
08
0C
0C
04
06
06
02
ENDCHAR

STARTCHAR char93
ENCODING 93
SWIDTH 13 0
DWIDTH 14 0
BBX 8 18 3 0
BITMAP
FF
13
1F
1F
1F
13
1F
13
1F
1F
13
1F
1F
13
1F
1F
13
FF
ENDCHAR

STARTCHAR char94
ENCODING 94
SWIDTH 0 0
DWIDTH 0 0
BBX 9 5 -4 19
BITMAP
1E00
3200
4F00
4900
8780
ENDCHAR

STARTCHAR char95
ENCODING 95
SWIDTH 17 0
DWIDTH 15 0
BBX 14 1 0 -3
BITMAP
FFFC
ENDCHAR

STARTCHAR char96
ENCODING 96
SWIDTH 0 0
DWIDTH 0 0
BBX 5 4 -4 16
BITMAP
F0
30
18
08
ENDCHAR

STARTCHAR char97
ENCODING 97
SWIDTH 13 0
DWIDTH 24 0
BBX 21 15 4 0
BITMAP
002000
007000
007000
00F800
00F800
018C00
01BE00
024600
043F00
043F00
0FE180
081F80
180FC0
3C08E0
FF3FF8
ENDCHAR

STARTCHAR char98
ENCODING 98
SWIDTH 13 0
DWIDTH 24 0
BBX 19 15 5 0
BITMAP
FFFE00
131380
1F0FC0
1F07C0
1F07C0
1304C0
1F0980
13FF00
1F0F80
1F07C0
130460
1F07E0
1F07C0
1308C0
FFFF00
ENDCHAR

STARTCHAR char99
ENCODING 99
SWIDTH 2 0
DWIDTH 21 0
BBX 17 15 5 0
BITMAP
07F080
1B0F80
3E0580
7C0380
4C0180
FC0080
FC0080
8C0000
FC0000
BC0000
4C0080
7C0100
260200
1F0400
07F800
ENDCHAR

STARTCHAR char100
ENCODING 100
SWIDTH 16 0
DWIDTH 25 0
BBX 21 15 5 0
BITMAP
FFFF00
1185C0
1F83E0
1F81F0
1F81F0
118118
1F81F8
118118
1F81F8
1F81D8
118130
1F81F0
1F8360
1184C0
FFFF00
ENDCHAR

STARTCHAR char101
ENCODING 101
SWIDTH 9 0
DWIDTH 23 0
BBX 18 15 5 0
BITMAP
FFFFC0
1F06C0
1301C0
1F01C0
1F08C0
130840
1F1800
13F800
1F1800
1F0800
130040
1F00C0
1F01C0
1306C0
FFFFC0
ENDCHAR

STARTCHAR char102
ENCODING 102
SWIDTH 2 0
DWIDTH 21 0
BBX 19 15 4 0
BITMAP
FFFFE0
1F82E0
118160
1F80E0
1F8460
118420
1F9C00
11FC00
1F8C00
1F8400
118000
1F8000
1F8000
118000
FFF000
ENDCHAR

STARTCHAR char103
ENCODING 103
SWIDTH 16 0
DWIDTH 25 0
BBX 22 15 5 0
BITMAP
03F9C0
0F06C0
3E03C0
7E00C0
7E00C0
8C0040
FC0000
8C0000
FC3FF0
BC07E0
4C0460
7E07E0
2607E0
1B0460
07FBE0
ENDCHAR

STARTCHAR char104
ENCODING 104
SWIDTH 24 0
DWIDTH 27 0
BBX 24 15 5 0
BITMAP
FFE7FF
1F81F8
118118
1F81F8
118118
1F81F8
1781F8
19FF18
1F81F8
1F81F8
118118
1F81F8
1F81F8
118118
FFE7FF
ENDCHAR

STARTCHAR char105
ENCODING 105
SWIDTH 17 0
DWIDTH 15 0
BBX 12 15 3 0
BITMAP
FFF0
3180
1F80
1F80
1180
1F80
1F80
1180
1F80
1F80
1180
1F80
1F80
1180
FFF0
ENDCHAR

STARTCHAR char106
ENCODING 106
SWIDTH 24 0
DWIDTH 17 0
BBX 15 15 3 0
BITMAP
1FFE
0230
01F0
01F0
0130
01F0
01F0
0130
01F0
31F0
5930
F9F0
99F0
7120
3FC0
ENDCHAR

STARTCHAR char107
ENCODING 107
SWIDTH 24 0
DWIDTH 27 0
BBX 25 15 5 0
BITMAP
FFF7FF00
1F80B800
1180C000
1F808000
11830000
1F840000
1F9E0000
11930000
1FFF8000
1F97C000
1188E000
1F87E000
1F83F000
11821800
FFF7FF80
ENDCHAR

STARTCHAR char108
ENCODING 108
SWIDTH 6 0
DWIDTH 22 0
BBX 19 15 4 0
BITMAP
FFF000
118000
0F8000
0F8000
0F8000
098000
0F8000
098000
0F8000
0F8000
098020
0F8060
0F80E0
0983E0
FFFFE0
ENDCHAR

STARTCHAR char109
ENCODING 109
SWIDTH 2 0
DWIDTH 31 0
BBX 27 15 6 0
BITMAP
FF003FE0
31806700
1FC07E00
1FC0BE00
1460A600
17E13E00
12F13E00
11392600
11FA3E00
10FC3E00
108C2600
10783E00
10383E00
38282600
FE11FFE0
ENDCHAR

STARTCHAR char110
ENCODING 110
SWIDTH 16 0
DWIDTH 25 0
BBX 21 15 5 0
BITMAP
FF03F8
2F80E0
10E040
1FF040
163840
11FC40
11BE40
104740
103FC0
1017C0
1008C0
1007C0
1002C0
380140
FE00C0
ENDCHAR

STARTCHAR char111
ENCODING 111
SWIDTH 16 0
DWIDTH 25 0
BBX 20 15 5 0
BITMAP
07FC00
090B80
1F07C0
3E03E0
460260
FE03F0
FE03F0
860230
FE03F0
BE03F0
460230
7E03E0
3306E0
0D05C0
03FF00
ENDCHAR

STARTCHAR char112
ENCODING 112
SWIDTH 13 0
DWIDTH 24 0
BBX 20 15 5 0
BITMAP
FFFF00
1F85C0
130260
1F03F0
1F0230
1303F0
1F0360
1304E0
1FFF80
1F0000
130000
1F0000
1F0000
130000
FFF000
ENDCHAR

STARTCHAR char113
ENCODING 113
SWIDTH 16 0
DWIDTH 25 0
BBX 20 17 5 -2
BITMAP
07FC00
090B80
1F07C0
3E03E0
460260
FE03F0
FE03F0
860230
FE03F0
FE0BF0
463620
3E7FE0
330ED0
0D0990
03FE70
000360
0000C0
ENDCHAR

STARTCHAR char114
ENCODING 114
SWIDTH 13 0
DWIDTH 24 0
BBX 20 15 5 0
BITMAP
FFFF00
3F0B80
1304C0
1F07C0
1F04C0
1307C0
1F3D80
13C200
1F3E00
1F2E00
131300
1F1F00
1F0F80
130880
FFE7F0
ENDCHAR

STARTCHAR char115
ENCODING 115
SWIDTH 9 0
DWIDTH 23 0
BBX 18 15 5 0
BITMAP
0FE080
301F80
600780
F00180
BC0080
FFE080
DFFE00
400780
3FFFC0
47E3C0
401C40
6003C0
580140
660180
61FF00
ENDCHAR

STARTCHAR char116
ENCODING 116
SWIDTH 6 0
DWIDTH 22 0
BBX 19 15 4 0
BITMAP
FFFFE0
B93360
E1F0E0
E1F060
C13060
81F020
81F020
013000
01F000
01F000
013000
01F000
01F000
013000
0FFF00
ENDCHAR

STARTCHAR char117
ENCODING 117
SWIDTH 13 0
DWIDTH 24 0
BBX 21 15 4 0
BITMAP
FFF3F8
1180B0
1F80E0
1F8040
118040
1F8040
1F8040
118040
1F8040
1F8040
118040
0F8040
0B8080
04C380
03FC00
ENDCHAR

STARTCHAR char118
ENCODING 118
SWIDTH 13 0
DWIDTH 24 0
BBX 21 15 4 0
BITMAP
FFF7F8
218130
1F80C0
0FC080
0BC080
046080
05E100
023200
01F200
01FC00
00FC00
008800
007000
003000
002000
ENDCHAR

STARTCHAR char119
ENCODING 119
SWIDTH 12 0
DWIDTH 34 0
BBX 30 15 6 0
BITMAP
FFDFF9FC
23846098
1F07E070
1F83F060
0F83F840
08C31840
0BC4BC40
04644C80
03F87E80
02F03F00
01102200
00E01E00
00E01200
00600C00
00600C00
ENDCHAR

STARTCHAR char120
ENCODING 120
SWIDTH 16 0
DWIDTH 25 0
BBX 22 15 4 0
BITMAP
FFF7FC
20C160
1FC180
0FE100
043200
03FC00
017C00
008E00
007E00
00BF00
012180
021FC0
060BE0
1E0470
FFDFFC
ENDCHAR

STARTCHAR char121
ENCODING 121
SWIDTH 13 0
DWIDTH 24 0
BBX 21 15 4 0
BITMAP
FFF3F8
2180E0
1F80C0
0FC080
046100
07F100
02F200
011A00
01FC00
00FC00
008C00
00FC00
00FC00
008C00
07FF80
ENDCHAR

STARTCHAR char122
ENCODING 122
SWIDTH 35 0
DWIDTH 20 0
BBX 16 15 4 0
BITMAP
7FFF
7C3F
7046
60FE
410C
41F8
03B0
0470
0FE0
0EC1
1183
3F85
7B0F
4611
FFFF
ENDCHAR

STARTCHAR char123
ENCODING 123
SWIDTH 32 0
DWIDTH 9 0
BBX 6 23 1 -5
BITMAP
1C
3C
30
30
30
30
30
30
30
30
60
C0
60
30
30
30
30
30
30
30
30
3C
1C
ENDCHAR

STARTCHAR char124
ENCODING 124
SWIDTH 25 0
DWIDTH 7 0
BBX 2 18 2 0
BITMAP
C0
C0
C0
C0
C0
C0
C0
C0
C0
C0
C0
C0
C0
C0
C0
C0
C0
C0
ENDCHAR

STARTCHAR char125
ENCODING 125
SWIDTH 32 0
DWIDTH 9 0
BBX 6 23 1 -5
BITMAP
E0
F0
30
30
30
30
30
30
30
38
1C
0C
18
38
30
30
30
30
30
30
30
F0
E0
ENDCHAR

STARTCHAR char126
ENCODING 126
SWIDTH 0 0
DWIDTH 0 0
BBX 14 4 -7 19
BITMAP
3E04
7F88
83F8
80E0
ENDCHAR

STARTCHAR char128
ENCODING 128
SWIDTH 16 0
DWIDTH 25 0
BBX 23 18 3 0
BITMAP
007F82
01F87E
03701E
07E00E
086006
0FC006
7FFFF2
10C002
1FC000
FFFFE0
10C000
1FC000
0FC002
086002
07E004
027008
01F830
007FC0
ENDCHAR

STARTCHAR char130
ENCODING 130
SWIDTH 28 0
DWIDTH 8 0
BBX 6 8 2 -3
BITMAP
38
5C
FC
BC
4C
38
18
60
ENDCHAR

STARTCHAR char131
ENCODING 131
SWIDTH 0 0
DWIDTH 0 0
BBX 9 5 -4 19
BITMAP
1E00
3200
4F00
4900
8780
ENDCHAR

STARTCHAR char132
ENCODING 132
SWIDTH 13 0
DWIDTH 14 0
BBX 11 7 3 -3
BITMAP
71C0
9A60
FBE0
5960
38E0
30C0
6180
ENDCHAR

STARTCHAR char133
ENCODING 133
SWIDTH 24 0
DWIDTH 27 0
BBX 19 3 3 0
BITMAP
E0E0E0
E0E0E0
E0E0E0
ENDCHAR

STARTCHAR char134
ENCODING 134
SWIDTH 21 0
DWIDTH 16 0
BBX 12 13 4 3
BITMAP
1FC0
0980
0700
8710
C230
A250
FFF0
A270
C210
8610
0700
1980
1FC0
ENDCHAR

STARTCHAR char136
ENCODING 136
SWIDTH 0 0
DWIDTH 0 0
BBX 8 4 -3 16
BITMAP
3C
54
9E
8E
ENDCHAR

STARTCHAR char139
ENCODING 139
SWIDTH 32 0
DWIDTH 9 0
BBX 4 8 2 3
BITMAP
10
30
70
C0
C0
60
30
10
ENDCHAR

STARTCHAR char140
ENCODING 140
SWIDTH 8 0
DWIDTH 43 0
BBX 35 18 9 0
BITMAP
03FFFFFFE0
0F80BE0460
11804603E0
3F007E00E0
4300460060
7F007E0860
FE007E0820
FE007E3800
860047F800
FE007E2800
8600461800
FE007E0820
7F007E0020
4300460060
3F007E00E0
11804601E0
0F807E0660
01FFFFFFE0
ENDCHAR

STARTCHAR char145
ENCODING 145
SWIDTH 25 0
DWIDTH 7 0
BBX 5 7 2 11
BITMAP
30
60
E0
90
F8
58
30
ENDCHAR

STARTCHAR char146
ENCODING 146
SWIDTH 25 0
DWIDTH 7 0
BBX 5 7 2 11
BITMAP
70
98
F8
58
38
30
60
ENDCHAR

STARTCHAR char147
ENCODING 147
SWIDTH 13 0
DWIDTH 14 0
BBX 11 7 3 11
BITMAP
30C0
6180
A380
9A40
FBE0
D960
71C0
ENDCHAR

STARTCHAR char148
ENCODING 148
SWIDTH 13 0
DWIDTH 14 0
BBX 11 7 3 11
BITMAP
71C0
5A40
7BE0
7960
18C0
30C0
6180
ENDCHAR

STARTCHAR char149
ENCODING 149
SWIDTH 32 0
DWIDTH 9 0
BBX 7 6 1 6
BITMAP
38
7C
FE
FE
FE
38
ENDCHAR

STARTCHAR char150
ENCODING 150
SWIDTH 16 0
DWIDTH 25 0
BBX 20 1 5 8
BITMAP
FFFFF0
ENDCHAR

STARTCHAR char151
ENCODING 151
SWIDTH 28 0
DWIDTH 18 0
BBX 17 1 3 7
BITMAP
FFFF80
ENDCHAR

STARTCHAR char152
ENCODING 152
SWIDTH 0 0
DWIDTH 0 0
BBX 12 4 -6 16
BITMAP
3810
7630
CFE0
81C0
ENDCHAR

STARTCHAR char153
ENCODING 153
SWIDTH 27 0
DWIDTH 38 0
BBX 32 15 7 11
BITMAP
FFFFC01F
C639C01C
8609E01C
8609E02C
0601702C
0601706C
0601384C
060138CC
06011C8C
06011C8C
06010D0C
06010F0C
0601070C
0601060C
1F83C23F
ENDCHAR

STARTCHAR char155
ENCODING 155
SWIDTH 32 0
DWIDTH 9 0
BBX 4 8 2 3
BITMAP
80
C0
70
30
30
70
C0
80
ENDCHAR

STARTCHAR char156
ENCODING 156
SWIDTH 16 0
DWIDTH 35 0
BBX 30 15 7 0
BITMAP
03FE0000
0F03FFFC
1602302C
3E03F01C
4E02308C
7C03F084
FC03F380
8C023F80
FC03F180
BC03F080
4E023004
7E03F01C
2603F01C
1B02306C
07FFFFFC
ENDCHAR

STARTCHAR char159
ENCODING 159
SWIDTH 27 0
DWIDTH 28 0
BBX 25 23 5 0
BITMAP
01E38000
01E78000
01228000
00C10000
00000000
FFFCFF80
2FE02700
10E01C00
0FE01800
07F01000
04383000
02FC2000
010C4000
01FE8000
00BF0000
00C30000
007F0000
007F0000
00430000
007F0000
00430000
007F0000
03FFF000
ENDCHAR

STARTCHAR char160
ENCODING 160
SWIDTH 9 0
DWIDTH 23 0
BBX 0 0 0 0
BITMAP
ENDCHAR

STARTCHAR char161
ENCODING 161
SWIDTH 35 0
DWIDTH 10 0
BBX 6 18 2 0
BITMAP
38
7C
4C
7C
38
00
10
10
30
38
38
78
7C
4C
BC
FC
4C
38
ENDCHAR

STARTCHAR char162
ENCODING 162
SWIDTH 2 0
DWIDTH 21 0
BBX 17 19 5 -2
BITMAP
004000
004000
0FF880
134780
3E4380
7E4180
4C4180
FC4080
FC4000
8C4000
FC4000
BC4000
4C4080
7C4100
2E4200
164400
0FF800
004000
004000
ENDCHAR

STARTCHAR char163
ENCODING 163
SWIDTH 16 0
DWIDTH 25 0
BBX 22 18 5 0
BITMAP
01FFC0
03E030
0CC058
0FC0FC
1FC0EC
10C09C
1FC078
10C000
1FC000
FFFF80
10C000
1FC004
1FC00C
10C01C
1FC07C
1FC0FC
10C31C
FFFFFC
ENDCHAR

STARTCHAR char164
ENCODING 164
SWIDTH 0 0
DWIDTH 0 0
BBX 5 5 -1 19
BITMAP
78
B0
E0
C0
80
ENDCHAR

STARTCHAR char165
ENCODING 165
SWIDTH 0 0
DWIDTH 0 0
BBX 10 5 -5 19
BITMAP
7840
4880
3C80
2700
1E00
ENDCHAR

STARTCHAR char167
ENCODING 167
SWIDTH 6 0
DWIDTH 22 0
BBX 17 26 5 -7
BITMAP
000200
0FE600
301E00
600E00
600200
780200
FF8000
FFFC00
401E00
3FFF00
3F0F80
60F180
700F80
B80280
DF8300
FFFE00
5FFE00
200300
1FFF80
01F080
400F80
600280
700380
580300
760C00
41F000
ENDCHAR

STARTCHAR char168
ENCODING 168
SWIDTH 0 0
DWIDTH 0 0
BBX 8 4 -4 16
BITMAP
42
A5
E7
C2
ENDCHAR

STARTCHAR char169
ENCODING 169
SWIDTH 9 0
DWIDTH 33 0
BBX 27 26 7 0
BITMAP
003F8000
00FFF000
03C03800
07000C00
0C000700
18000300
301F2180
3030E0C0
606060C0
60C02040
C0C01060
C1800060
C1800060
C1800060
C1800060
C1800060
C1C00060
60C000C0
606020C0
3030C0C0
301F8180
18000300
0C000600
07801C00
01FFF800
007FC000
ENDCHAR

STARTCHAR char170
ENCODING 170
SWIDTH 0 0
DWIDTH 0 0
BBX 10 4 -5 19
BITMAP
F3C0
F3C0
92C0
6180
ENDCHAR

STARTCHAR char171
ENCODING 171
SWIDTH 10 0
DWIDTH 13 0
BBX 10 8 3 4
BITMAP
1880
3100
6200
C400
C400
6200
3100
1880
ENDCHAR

STARTCHAR char172
ENCODING 172
SWIDTH 34 0
DWIDTH 30 0
BBX 25 11 6 0
BITMAP
FFFFFF80
FFFFFF80
00000180
00000180
00000180
00000180
00000180
00000180
00000180
00000180
00000180
ENDCHAR

STARTCHAR char174
ENCODING 174
SWIDTH 9 0
DWIDTH 33 0
BBX 27 27 7 -1
BITMAP
003F8000
00FFE000
03C07800
07000C00
0C000600
18000300
30FFC180
3030E080
603070C0
603070C0
C0307060
C030E060
C033C060
C03F0060
C0370060
C0338060
C031C060
6030E040
603070C0
31FC38C0
30000180
18000300
0C000600
07000C00
03C07800
00FFF000
003F8000
ENDCHAR

STARTCHAR char176
ENCODING 176
SWIDTH 24 0
DWIDTH 17 0
BBX 11 12 5 14
BITMAP
1F00
7F80
60C0
C060
C060
C060
C060
C060
40C0
71C0
3F80
0E00
ENDCHAR

STARTCHAR char177
ENCODING 177
SWIDTH 9 0
DWIDTH 23 0
BBX 20 25 4 0
BITMAP
006000
006000
006000
006000
006000
006000
006000
006000
006000
FFFFF0
FFFFF0
006000
006000
006000
006000
006000
006000
006000
006000
006000
006000
000000
000000
FFFFF0
FFFFF0
ENDCHAR

STARTCHAR char180
ENCODING 180
SWIDTH 0 0
DWIDTH 0 0
BBX 5 4 -1 16
BITMAP
70
60
40
80
ENDCHAR

STARTCHAR char182
ENCODING 182
SWIDTH 28 0
DWIDTH 18 0
BBX 11 22 2 -4
BITMAP
1FE0
3840
7840
F840
F840
F840
F840
7840
7840
3840
0840
0840
0840
0840
0840
0840
0840
0840
0840
0840
0840
0840
ENDCHAR

STARTCHAR char183
ENCODING 183
SWIDTH 25 0
DWIDTH 7 0
BBX 2 2 3 6
BITMAP
C0
C0
ENDCHAR

STARTCHAR char184
ENCODING 184
SWIDTH 0 0
DWIDTH 0 0
BBX 4 6 -1 -6
BITMAP
E0
B0
F0
50
60
80
ENDCHAR

STARTCHAR char186
ENCODING 186
SWIDTH 0 0
DWIDTH 0 0
BBX 14 4 -7 19
BITMAP
3E04
7F88
83F8
80E0
ENDCHAR

STARTCHAR char187
ENCODING 187
SWIDTH 10 0
DWIDTH 13 0
BBX 10 8 3 4
BITMAP
C400
2200
1100
0880
0880
1100
6200
C400
ENDCHAR

STARTCHAR char191
ENCODING 191
SWIDTH 21 0
DWIDTH 16 0
BBX 13 18 4 0
BITMAP
0380
07C0
08C0
0FC0
0780
0000
0100
0700
3B00
7F00
6300
9FF0
F8F8
F098
B078
F018
3030
1FC0
ENDCHAR

STARTCHAR char192
ENCODING 192
SWIDTH 27 0
DWIDTH 28 0
BBX 25 24 5 0
BITMAP
00F80000
00480000
00280000
00180000
00040000
00000000
00080000
001C0000
002C0000
003E0000
007F0000
00430000
00FF8000
01AF8000
0111C000
0217C000
0208E000
040FE000
0FFFF000
08043800
1803F800
3C03FC00
7E020E00
FF9FFF80
ENDCHAR

STARTCHAR char193
ENCODING 193
SWIDTH 27 0
DWIDTH 28 0
BBX 25 24 5 0
BITMAP
000F0000
000A0000
000C0000
00180000
00100000
00000000
00080000
001C0000
002C0000
003E0000
007F0000
00430000
00FF8000
01AF8000
0111C000
0217C000
0208E000
040FE000
0FFFF000
08043800
1803F800
3C03FC00
7E020E00
FF9FFF80
ENDCHAR

STARTCHAR char194
ENCODING 194
SWIDTH 27 0
DWIDTH 28 0
BBX 25 24 5 0
BITMAP
001E0000
00130000
002F0000
00458000
0047C000
00000000
00080000
001C0000
001C0000
003E0000
007F0000
00430000
00FF8000
00AF8000
0111C000
0317C000
0208E000
040FE000
07FBF000
08043800
1803F800
1C03FC00
7E020E00
FF9FFF80
ENDCHAR

STARTCHAR char195
ENCODING 195
SWIDTH 27 0
DWIDTH 28 0
BBX 25 24 5 0
BITMAP
00400000
01F82000
03DE2000
063FC000
04078000
00000000
00080000
001C0000
001C0000
003E0000
007E0000
00470000
00FF8000
00AF8000
0111C000
0217C000
0208E000
040FE000
07FBF000
08043800
1803F800
1803FC00
7E020C00
FF9FFF80
ENDCHAR

STARTCHAR char196
ENCODING 196
SWIDTH 27 0
DWIDTH 28 0
BBX 25 23 5 0
BITMAP
00F38000
00D78000
00B48000
00630000
00000000
00080000
001C0000
001C0000
003E0000
003F0000
00430000
00FF8000
00AF8000
0111C000
0117C000
0208E000
020FE000
07FBF000
04043800
0C03F800
1C03FC00
3E020E00
FFCFFF80
ENDCHAR

STARTCHAR char197
ENCODING 197
SWIDTH 27 0
DWIDTH 28 0
BBX 25 24 5 0
BITMAP
001C0000
00220000
00220000
00220000
001C0000
00000000
00080000
001C0000
001C0000
003E0000
007F0000
00430000
00FF8000
00AF8000
0111C000
011FC000
020FE000
0408E000
07FFF000
08043800
0803F800
1803FC00
3C020C00
FF9FFF80
ENDCHAR

STARTCHAR char198
ENCODING 198
SWIDTH 1 0
DWIDTH 41 0
BBX 35 18 7 0
BITMAP
000FFFFFE0
00017C0CE0
00028C03E0
0004FC01E0
0004FC00E0
00088C1060
0010FC1020
0020FC3000
00408FF000
0080FC7000
00808C1000
0100FC1020
03FFFC0020
04008C0060
0C00FC01E0
14008C03E0
3C00FC0C60
FFCFFFFFE0
ENDCHAR

STARTCHAR char199
ENCODING 199
SWIDTH 16 0
DWIDTH 25 0
BBX 20 24 6 -6
BITMAP
03FE10
0FC1F0
1B80F0
3F0070
7F0030
820030
FE0010
860010
FE0000
FE0000
860000
FE0000
7E0010
430010
3F0020
130040
0D8080
03FF00
007800
007800
007800
006800
007000
004000
ENDCHAR

STARTCHAR char200
ENCODING 200
SWIDTH 24 0
DWIDTH 27 0
BBX 23 24 5 0
BITMAP
00F000
005000
007800
001800
000800
000000
FFFFFE
17C0CE
08C03E
0FC01E
0FC00E
08C106
0FC102
0FC300
08FF00
0FC500
08C300
0FC102
0FC006
08C00E
0FC016
08C03E
0FC0C6
FFFFFE
ENDCHAR

STARTCHAR char201
ENCODING 201
SWIDTH 24 0
DWIDTH 27 0
BBX 23 24 5 0
BITMAP
001E00
001400
001800
001000
001000
000000
FFFFFE
17C0CE
08C03E
0FC01E
0FC00E
08C106
0FC102
0FC300
08FF00
0FC500
08C300
0FC102
0FC006
08C00E
0FC016
08C03E
0FC0C6
FFFFFE
ENDCHAR

STARTCHAR char202
ENCODING 202
SWIDTH 24 0
DWIDTH 27 0
BBX 23 24 5 0
BITMAP
001E00
003200
004F00
004900
008780
000000
FFFFFE
17C0CE
08C03E
0FC01E
0FC00E
08C106
0FC102
0FC300
08FF00
0FC500
08C300
0FC102
0FC006
08C00E
0FC016
08C03E
0FC0C6
FFFFFE
ENDCHAR

STARTCHAR char203
ENCODING 203
SWIDTH 24 0
DWIDTH 27 0
BBX 23 23 5 0
BITMAP
01E780
01E780
012580
00C300
000000
FFFFFC
17E0CC
08E03C
0FE01C
0FE00C
08E084
0FE184
0FE380
08FF80
0FE780
08E180
0FE082
0FE006
08E00E
0FE016
0FE03E
08E046
FFFFFE
ENDCHAR

STARTCHAR char204
ENCODING 204
SWIDTH 24 0
DWIDTH 17 0
BBX 14 24 4 0
BITMAP
3E00
1A00
0E00
0300
0100
0000
FFFC
10E0
0FC0
0FC0
08C0
0FC0
0FC0
08C0
0FC0
0FC0
08C0
0FC0
0FC0
08C0
0FC0
08C0
1FC0
FFFC
ENDCHAR

STARTCHAR char205
ENCODING 205
SWIDTH 24 0
DWIDTH 17 0
BBX 14 24 4 0
BITMAP
03E0
02C0
0380
0200
0200
0000
FFFC
10E0
0FC0
0FC0
08C0
0FC0
0FC0
08C0
0FC0
0FC0
08C0
0FC0
0FC0
08C0
0FC0
08C0
1FC0
FFFC
ENDCHAR

STARTCHAR char206
ENCODING 206
SWIDTH 24 0
DWIDTH 17 0
BBX 14 24 4 0
BITMAP
07C0
0640
0BE0
1120
10F0
0000
FFFC
17E0
08C0
0FC0
08C0
0FC0
0FC0
08C0
0FC0
0FC0
08C0
0FC0
0FC0
08C0
0FC0
08C0
1FC0
FFFC
ENDCHAR

STARTCHAR char207
ENCODING 207
SWIDTH 24 0
DWIDTH 17 0
BBX 14 23 4 0
BITMAP
3CE0
7CF0
24B0
1860
0000
FFFC
17E0
08C0
0FC0
08C0
0FC0
0FC0
08C0
0FC0
0FC0
08C0
0FC0
0FC0
08C0
0FC0
08C0
1FC0
FFFC
ENDCHAR

STARTCHAR char209
ENCODING 209
SWIDTH 31 0
DWIDTH 29 0
BBX 26 24 5 0
BITMAP
00200000
00FC1000
01FF1000
020FE000
02038000
00000000
FFE07FC0
3FF00F00
18380E00
0FFC0400
0AFE0400
09070400
08BF8400
0841C400
083FE400
081BF400
08043C00
0803FC00
08017C00
08008400
08007C00
1C002C00
3E001400
FF800C00
ENDCHAR

STARTCHAR char210
ENCODING 210
SWIDTH 34 0
DWIDTH 30 0
BBX 23 24 7 0
BITMAP
01F000
009000
007000
001000
000800
000000
00FF00
07C2E0
1F01F0
3F01F8
43010C
7E00FC
FE00FE
860086
FE00FE
FE00FE
860086
FE00FE
BE00F4
43008C
3F00F8
130118
0F81E0
03FF80
ENDCHAR

STARTCHAR char211
ENCODING 211
SWIDTH 34 0
DWIDTH 30 0
BBX 23 24 7 0
BITMAP
001F00
001400
001800
001000
002000
000000
00FF00
07C2E0
1F01F0
3F01F8
43010C
7E00FC
FE00FE
860086
FE00FE
FE00FE
860086
FE00FE
BE00F4
43008C
3F00F8
130118
0F81E0
03FF80
ENDCHAR

STARTCHAR char212
ENCODING 212
SWIDTH 34 0
DWIDTH 30 0
BBX 23 24 7 0
BITMAP
003C00
003600
005F00
008B00
008F80
000000
01FF00
0F82E0
110130
3F01F8
43008C
7E00FC
FE00FE
860086
FE00FE
FE00FE
860086
FE00FE
BE00F4
43008C
3F00F8
130118
0F81E0
03FF80
ENDCHAR

STARTCHAR char213
ENCODING 213
SWIDTH 34 0
DWIDTH 30 0
BBX 23 24 7 0
BITMAP
008000
03F020
07DC40
043F80
080F00
000000
01FF80
0F82E0
110130
3F01F8
43008C
7E00FC
FE00FE
860086
FE00FE
FE00FE
860086
FE00FE
BE00F4
43008C
3F00F8
130118
0F81E0
03FF80
ENDCHAR

STARTCHAR char214
ENCODING 214
SWIDTH 34 0
DWIDTH 30 0
BBX 23 23 7 0
BITMAP
01C700
03E780
026580
01C300
000000
01FF00
07C2E0
1F81F0
3F01F8
7F017C
86008C
FE00FE
860086
FE00FE
FE00FE
860086
FE00FE
7E00F6
47008C
3F00FC
1301D8
0F8230
01FFC0
ENDCHAR

STARTCHAR char216
ENCODING 216
SWIDTH 34 0
DWIDTH 30 0
BBX 23 19 7 -1
BITMAP
01FF08
0682F0
1F81F0
3F01F8
43010C
7E02FC
FE04FE
860886
FE10FE
FE20FE
864086
FE80FE
BF00F6
43008C
3F00FC
1301D8
3F8230
61FFC0
400000
ENDCHAR

STARTCHAR char217
ENCODING 217
SWIDTH 27 0
DWIDTH 28 0
BBX 25 24 5 0
BITMAP
00F80000
00480000
00280000
00180000
00040000
00000000
FFFCFF80
1FE03E00
08C01400
0FC00800
08C00800
0FC00800
0FC00800
08C00800
0FC00800
0FC00800
08C00800
0FC00800
0FC00800
08C00800
0BC00800
04E01000
03E0E000
00FF0000
ENDCHAR

STARTCHAR char218
ENCODING 218
SWIDTH 27 0
DWIDTH 28 0
BBX 25 24 5 0
BITMAP
000F0000
000A0000
000C0000
00180000
00100000
00000000
FFFCFF80
10E03600
0FC00C00
0FC00800
08C00800
0FC00800
0FC00800
08C00800
0FC00800
0FC00800
08C00800
0FC00800
0FC00800
08C00800
0BC00800
04E01000
03E0E000
00FF0000
ENDCHAR

STARTCHAR char219
ENCODING 219
SWIDTH 27 0
DWIDTH 28 0
BBX 25 24 5 0
BITMAP
001E0000
00330000
002F0000
00458000
0087C000
00000000
FFFCFF80
17E03600
08C00C00
0FC00800
08C00800
0FC00800
0FC00800
08C00800
0FC00800
0FC00800
08C00800
0FC00800
0FC00800
08C00800
0BC00800
04E01000
03E0E000
00FF0000
ENDCHAR

STARTCHAR char220
ENCODING 220
SWIDTH 27 0
DWIDTH 28 0
BBX 25 23 5 0
BITMAP
0079E000
0079E000
00492000
0030C000
00000000
FFFC7F80
17E01600
08C00C00
0FC00800
08C00800
0FC00800
0FC00800
08C00800
0FC00800
0FC00800
08C00800
0FC00800
0FC00800
08C00800
0BC00800
04E01000
03E06000
00FF8000
ENDCHAR

STARTCHAR char223
ENCODING 223
SWIDTH 27 0
DWIDTH 38 0
BBX 38 15 3 0
BITMAP
0FF081FE10
300B8201B0
6005860050
F0038E0030
DC018B8010
BFE08FFE10
BFFE0BFFE0
4007840078
3FFFC3FFF8
47E3C4FC3C
601C4403C4
7003C6003C
5801470018
660186C018
61FF043FF0
ENDCHAR

STARTCHAR char224
ENCODING 224
SWIDTH 13 0
DWIDTH 24 0
BBX 21 20 4 0
BITMAP
01E000
00A000
006000
001000
000000
002000
007000
007000
00F800
00FC00
018C00
01BE00
024600
043F00
043F00
0FE180
081F80
180FC0
3C08E0
FF3FF8
ENDCHAR

STARTCHAR char225
ENCODING 225
SWIDTH 13 0
DWIDTH 24 0
BBX 21 20 4 0
BITMAP
001C00
002800
003000
002000
000000
002000
007000
007000
00F800
00FC00
018C00
01BE00
024600
043F00
043F00
0FE180
081F80
180FC0
3C08E0
FF3FF8
ENDCHAR

STARTCHAR char226
ENCODING 226
SWIDTH 13 0
DWIDTH 24 0
BBX 21 20 4 0
BITMAP
003800
006C00
009C00
011E00
000000
002000
007000
007000
00F800
00FC00
018C00
01BE00
024600
023F00
043F00
07E180
081F80
180FC0
3C08E0
FF3FF8
ENDCHAR

STARTCHAR char227
ENCODING 227
SWIDTH 13 0
DWIDTH 24 0
BBX 21 20 4 0
BITMAP
01C080
03B180
047E00
041C00
000000
002000
007000
007000
00F800
00FC00
018C00
01BE00
024600
023F00
043F00
07E180
081F80
180FC0
3C08E0
FF3FF8
ENDCHAR

STARTCHAR char228
ENCODING 228
SWIDTH 13 0
DWIDTH 24 0
BBX 21 20 4 0
BITMAP
018C00
025200
03DE00
018C00
000000
002000
007000
007000
00F800
00F800
018C00
01BE00
024600
023F00
043F00
07E180
081F80
180FC0
3808E0
FF3FF8
ENDCHAR

STARTCHAR char229
ENCODING 229
SWIDTH 13 0
DWIDTH 24 0
BBX 21 20 4 0
BITMAP
007000
004800
004800
007000
000000
002000
007000
007000
00F800
00FC00
018C00
01BE00
024600
043F00
043F00
0FE180
081F80
180FC0
3C08E0
FF3FF8
ENDCHAR

STARTCHAR char230
ENCODING 230
SWIDTH 16 0
DWIDTH 35 0
BBX 29 15 6 0
BITMAP
001FFFF8
0007E0B8
000A6058
0013E038
0023E118
00426108
0083E700
00827F00
0103E300
0203E100
07FE6008
0803E018
1803E078
3C026098
FF1FFFF8
ENDCHAR

STARTCHAR char231
ENCODING 231
SWIDTH 2 0
DWIDTH 21 0
BBX 17 21 5 -6
BITMAP
07F080
1B0F80
3E0780
7C0180
4C0180
FC0080
FC0080
8C0000
FC0000
BC0000
4C0080
7C0100
260200
1B0400
07F800
00C000
016000
01E000
01A000
01C000
010000
ENDCHAR

STARTCHAR char232
ENCODING 232
SWIDTH 9 0
DWIDTH 23 0
BBX 18 20 5 0
BITMAP
038000
018000
00C000
004000
000000
FFFFC0
1F06C0
1301C0
1F01C0
1F0840
131800
1FB800
1F6800
131800
1F0840
130040
1F00C0
1F01C0
1306C0
FFFFC0
ENDCHAR

STARTCHAR char233
ENCODING 233
SWIDTH 9 0
DWIDTH 23 0
BBX 18 20 5 0
BITMAP
007000
006000
004000
008000
000000
FFFFC0
1F06C0
1301C0
1F01C0
1F0840
131800
1FB800
1F6800
131800
1F0840
130040
1F00C0
1F01C0
1306C0
FFFFC0
ENDCHAR

STARTCHAR char234
ENCODING 234
SWIDTH 9 0
DWIDTH 23 0
BBX 18 20 5 0
BITMAP
00F000
015000
017800
023800
000000
FFFFC0
1F06C0
1301C0
1F01C0
1F0840
131800
1FB800
1F6800
131800
1F0840
130040
1F00C0
1F01C0
1306C0
FFFFC0
ENDCHAR

STARTCHAR char235
ENCODING 235
SWIDTH 9 0
DWIDTH 23 0
BBX 18 20 5 0
BITMAP
021000
052800
073800
021000
000000
FFFFC0
1F04C0
1303C0
1F01C0
1F08C0
130840
1F1800
13F800
1F1800
1F0800
130040
1F00C0
1F01C0
1306C0
FFFFC0
ENDCHAR

STARTCHAR char236
ENCODING 236
SWIDTH 17 0
DWIDTH 15 0
BBX 12 20 3 0
BITMAP
3C00
0C00
0600
0200
0000
FFF0
1F80
1180
1F80
1180
1F80
1F80
1180
1F80
1F80
1180
1F80
1F80
1180
FFF0
ENDCHAR

STARTCHAR char237
ENCODING 237
SWIDTH 17 0
DWIDTH 15 0
BBX 12 20 3 0
BITMAP
0F00
0A00
1C00
1800
0000
FFF0
3180
1F80
1F80
1180
1F80
1F80
1180
1F80
1F80
1180
1F80
1F80
1180
FFF0
ENDCHAR

STARTCHAR char238
ENCODING 238
SWIDTH 17 0
DWIDTH 15 0
BBX 12 20 3 0
BITMAP
0F00
1500
2780
2380
0000
FFF0
1F80
1180
1F80
1180
1F80
1F80
1180
1F80
1F80
1180
1F80
1F80
1180
FFF0
ENDCHAR

STARTCHAR char239
ENCODING 239
SWIDTH 17 0
DWIDTH 15 0
BBX 12 20 3 0
BITMAP
3080
2B40
3BC0
3180
0000
FFF0
1F80
1180
1F80
1180
1F80
1F80
1180
1F80
1F80
1180
1F80
1F80
1380
FFF0
ENDCHAR

STARTCHAR char241
ENCODING 241
SWIDTH 16 0
DWIDTH 25 0
BBX 21 20 5 0
BITMAP
018100
077100
08FE00
081C00
000000
FF03F8
2F80E0
10E040
1FF040
16F840
111C40
11BE40
104740
103FC0
1017C0
1008C0
1007C0
1002C0
380140
FE00C0
ENDCHAR

STARTCHAR char242
ENCODING 242
SWIDTH 16 0
DWIDTH 25 0
BBX 20 20 5 0
BITMAP
01C000
00A000
006000
002000
000000
07FC00
090B80
1F07C0
3E03E0
460260
FE03F0
FE03F0
860230
FE03F0
BE03F0
460230
7E03E0
3306E0
0D05C0
03FF00
ENDCHAR

STARTCHAR char243
ENCODING 243
SWIDTH 16 0
DWIDTH 25 0
BBX 20 20 5 0
BITMAP
003C00
003800
003000
002000
000000
07FC00
090B80
1F07C0
3E03E0
460260
FE03F0
FE03F0
860230
FE03F0
BE03F0
460230
7E03E0
3306E0
0D05C0
03FF00
ENDCHAR

STARTCHAR char244
ENCODING 244
SWIDTH 16 0
DWIDTH 25 0
BBX 20 20 5 0
BITMAP
007800
00A800
00BC00
011E00
000000
07FC00
090B80
1F07C0
3E03E0
7E0260
8603F0
FE03F0
860230
FE03F0
BE03F0
460230
7E03E0
3306E0
0D05C0
03FF00
ENDCHAR

STARTCHAR char245
ENCODING 245
SWIDTH 16 0
DWIDTH 25 0
BBX 20 20 5 0
BITMAP
018100
077100
04FE00
081C00
000000
07FC00
090B80
1F07C0
3E07E0
7E0260
8603F0
FE03F0
860230
FE03F0
BE03F0
460230
7E03E0
3206E0
0D0580
03FF00
ENDCHAR

STARTCHAR char246
ENCODING 246
SWIDTH 16 0
DWIDTH 25 0
BBX 20 20 5 0
BITMAP
010C00
029600
039E00
010C00
000000
07FC00
090B80
1F07C0
3E03E0
460260
FE03F0
FE03F0
860230
FE03F0
BE03F0
460230
7E03E0
3306C0
0D0580
03FE00
ENDCHAR

STARTCHAR char247
ENCODING 247
SWIDTH 9 0
DWIDTH 23 0
BBX 20 14 4 3
BITMAP
006000
00F000
00F000
006000
000000
000000
FFFFF0
FFFFF0
000000
000000
006000
00F000
00F000
006000
ENDCHAR

STARTCHAR char248
ENCODING 248
SWIDTH 16 0
DWIDTH 25 0
BBX 20 16 5 -1
BITMAP
07FC40
090B80
1F07C0
3E03E0
460660
FE0BF0
FE13F0
866230
FE83F0
7F03F0
460230
3E03E0
1706E0
190580
E7FE00
400000
ENDCHAR

STARTCHAR char249
ENCODING 249
SWIDTH 13 0
DWIDTH 24 0
BBX 21 20 4 0
BITMAP
01E000
00A000
006000
001000
000000
FFF3F8
1180B0
1F80E0
1F8040
118040
0F8040
0F8040
098040
0F8040
0F8040
098040
0F8040
0B8080
04C380
03FC00
ENDCHAR

STARTCHAR char250
ENCODING 250
SWIDTH 13 0
DWIDTH 24 0
BBX 21 20 4 0
BITMAP
001C00
002800
003000
002000
000000
FFF3F8
1180B0
1F80E0
1F8040
118040
0F8040
0F8040
098040
0F8040
0F8040
098040
0F8040
0B8080
04C380
03FC00
ENDCHAR

STARTCHAR char251
ENCODING 251
SWIDTH 13 0
DWIDTH 24 0
BBX 21 20 4 0
BITMAP
003800
006C00
009C00
019E00
000000
FFF3F8
1180B0
1F80E0
1F8040
118040
0F8040
0F8040
098040
0F8040
0F8040
098040
0F8040
0B8080
04C380
03FC00
ENDCHAR

STARTCHAR char252
ENCODING 252
SWIDTH 13 0
DWIDTH 24 0
BBX 21 20 4 0
BITMAP
004600
00AB00
00EF00
004600
000000
FFF7F8
118130
1F80E0
1F8040
118040
0F8040
0F8040
098040
0F8040
0F8040
098040
0F8040
0B8080
048300
03FC00
ENDCHAR

STARTCHAR char255
ENCODING 255
SWIDTH 13 0
DWIDTH 24 0
BBX 21 20 4 0
BITMAP
018C00
015600
03DA00
018C00
000000
FFF7F8
2F81E0
11C0C0
0FC080
046100
07E100
02F200
011C00
01F800
00F800
008800
00F800
00F800
008C00
07FF80
ENDCHAR
ENDFONT
